<?xml version="1.0" encoding="UTF-8"?>
<svg width="24px" height="24px" viewBox="0 0 24 24" version="1.1" xmlns="http://www.w3.org/2000/svg" xmlns:xlink="http://www.w3.org/1999/xlink">
    <!-- Generator: Sketch 64 (93537) - https://sketch.com -->
    <title>icon / 24-cont / content / home-folder-24</title>
    <desc>Created with Sketch.</desc>
    <defs>
        <path d="M19,10 C19.5522847,10 20,10.4477153 20,11 L20,11.0264648 L17.0170898,11.0264648 C13.7786929,11.0264648 11.1395181,13.5920397 11.0212283,16.8015266 L11.0170898,17.0264648 L11.0170898,20 L12.5989576,19.9995467 C12.2159785,19.2494573 12,18.3998537 12,17.5 C12,14.464 14.4585,12 17.4945,12 C20.536,12 23,14.464 23,17.5 C23,20.536 20.536,23 17.4945,23 C15.3587561,23 13.508802,21.78063 12.5994715,20.000553 L5,20 C4.44771525,20 4,19.5522847 4,19 L4,11 C4,10.4477153 4.44771525,10 5,10 L19,10 Z M15.297986,20 L13.5,20 C14.0696456,20.9325843 15.4081793,21.6460674 16.5,22 C16.1439715,21.3764045 15.4878679,20.7022472 15.297986,20 L15.297986,20 Z M18.5,20 L16.5,20 C16.7251309,20.7222222 17.065445,21.3939394 17.5,22 C17.934555,21.3939394 18.2748691,20.7222222 18.5,20 L18.5,20 Z M21.5,20 L19.6520662,20 C19.4740799,20.7022472 18.8337245,21.3764045 18.5,22 C19.5234217,21.6460674 20.9660409,20.9269663 21.5,20 L21.5,20 Z M15,16 L13.1428571,16 C13.0549451,16.48 13,16.9825 13,17.5 C13,18.0175 13.0549451,18.52 13.1428571,19 L13.1428571,19 L15,19 C14.956044,18.505 14.9230769,18.01 14.9230769,17.5 C14.9230769,16.99 14.956044,16.495 15,16 L15,16 Z M18.904,16 L16.096,16 C16.042,16.4875 16,16.99 16,17.5 C16,18.01 16.042,18.505 16.096,19 L16.096,19 L18.904,19 C18.958,18.505 19,18.01 19,17.5 C19,16.99 18.958,16.4875 18.904,16 L18.904,16 Z M21.8571429,16 L20,16 C20.043956,16.495 20.0769231,16.99 20.0769231,17.5 C20.0769231,18.01 20.043956,18.505 20,19 L20,19 L21.8571429,19 C21.9450549,18.52 22,18.0175 22,17.5 C22,16.9825 21.9450549,16.48 21.8571429,16 L21.8571429,16 Z M18.5,13 C18.8581277,13.6155969 19.5482042,14.3067603 19.7392056,15 L19.7392056,15 L21.5,15 C20.9269957,14.0849235 19.5982582,13.3493928 18.5,13 Z M17.5,13 C17.065445,13.6060606 16.7251309,14.2777778 16.5,15 L16.5,15 L18.5,15 C18.2748691,14.2777778 17.934555,13.6060606 17.5,13 Z M16.5,13 C15.3978162,13.3526887 14.0750524,14.0706932 13.5,15 L13.5,15 L15.2670881,15 C15.4587722,14.3002208 16.1405923,13.6214039 16.5,13 Z M8.96777344,5 L10.0151978,5.98944092 L19,5.98944092 C19.5522847,5.98944092 20,6.43715617 20,6.98944092 L20,9 L4,9 L4,6 C4,5.44771525 4.44771525,5 5,5 L8.96777344,5 Z" id="path-1"></path>
    </defs>
    <g id="icon-/-24-cont-/-content-/-home-folder-24" stroke="none" stroke-width="1" fill="none" fill-rule="evenodd">
        <mask id="mask-2" fill="white">
            <use xlink:href="#path-1"></use>
        </mask>
        <use id="Combined-Shape" fill="#7E7E7E" xlink:href="#path-1"></use>
        <g id="Colors-/-Dark-Theme-/-Grayscale-/-Filled-/-$base-gray" mask="url(#mask-2)" fill="#7E7E7E">
            <rect id="Dark-Theme-/-Grayscale-/-Filled-/-$base-gray" x="0" y="0" width="24" height="24"></rect>
        </g>
    </g>
</svg>
